<?xml version="1.0" encoding="UTF-8" standalone="no"?>
<!-- Created with Inkscape (http://www.inkscape.org/) -->

<svg
   width="118.53292mm"
   height="56.438965mm"
   viewBox="0 0 118.53292 56.438965"
   version="1.1"
   id="svg4279"
   xmlns="http://www.w3.org/2000/svg"
   xmlns:svg="http://www.w3.org/2000/svg">
  <defs
     id="defs4276">
    <clipPath
       clipPathUnits="userSpaceOnUse"
       id="clipPath51">
      <path
         d="M 312,190 H 648 V 350 H 312 Z"
         clip-rule="evenodd"
         id="path49" />
    </clipPath>
    <clipPath
       clipPathUnits="userSpaceOnUse"
       id="clipPath61">
      <path
         d="M 0,0 H 335.52 V 159.1 H 0 Z"
         id="path59" />
    </clipPath>
    <clipPath
       clipPathUnits="userSpaceOnUse"
       id="clipPath75">
      <path
         d="M 0,159.1 V -0.61942 H 336.12 V 159.1"
         clip-rule="evenodd"
         id="path73" />
    </clipPath>
    <clipPath
       clipPathUnits="userSpaceOnUse"
       id="clipPath85">
      <path
         d="M 0,159.1 V -0.61942 H 336.12 V 159.1"
         clip-rule="evenodd"
         id="path83" />
    </clipPath>
    <clipPath
       clipPathUnits="userSpaceOnUse"
       id="clipPath95">
      <path
         d="M 0,159.1 V -0.61942 H 336.12 V 159.1"
         clip-rule="evenodd"
         id="path93" />
    </clipPath>
    <clipPath
       clipPathUnits="userSpaceOnUse"
       id="clipPath105">
      <path
         d="M 0,159.1 V -0.61942 H 336.12 V 159.1"
         clip-rule="evenodd"
         id="path103" />
    </clipPath>
    <clipPath
       clipPathUnits="userSpaceOnUse"
       id="clipPath115">
      <path
         d="M 0,159.1 V -0.61942 H 336.12 V 159.1"
         clip-rule="evenodd"
         id="path113" />
    </clipPath>
    <clipPath
       clipPathUnits="userSpaceOnUse"
       id="clipPath125">
      <path
         d="M 0,159.1 V -0.61942 H 336.12 V 159.1"
         clip-rule="evenodd"
         id="path123" />
    </clipPath>
    <clipPath
       clipPathUnits="userSpaceOnUse"
       id="clipPath135">
      <path
         d="M 0,159.1 V -0.61942 H 336.12 V 159.1"
         clip-rule="evenodd"
         id="path133" />
    </clipPath>
    <clipPath
       clipPathUnits="userSpaceOnUse"
       id="clipPath145">
      <path
         d="M 0,159.1 V -0.61942 H 336.12 V 159.1"
         clip-rule="evenodd"
         id="path143" />
    </clipPath>
    <clipPath
       clipPathUnits="userSpaceOnUse"
       id="clipPath155">
      <path
         d="M 0,159.1 V -0.61942 H 336.12 V 159.1"
         clip-rule="evenodd"
         id="path153" />
    </clipPath>
    <clipPath
       clipPathUnits="userSpaceOnUse"
       id="clipPath165">
      <path
         d="M 0,159.1 V -0.61942 H 336.12 V 159.1"
         clip-rule="evenodd"
         id="path163" />
    </clipPath>
    <clipPath
       clipPathUnits="userSpaceOnUse"
       id="clipPath175">
      <path
         d="M 0,159.1 V -0.61942 H 336.12 V 159.1"
         clip-rule="evenodd"
         id="path173" />
    </clipPath>
  </defs>
  <g
     id="layer1"
     transform="translate(-44.899801,-82.074206)">
    <g
       id="g45"
       transform="matrix(0.35277776,0,0,-0.35277778,-65.16686,205.54517)">
      <g
         id="g47"
         clip-path="url(#clipPath51)">
        <g
           id="g53"
           transform="matrix(4.6667,-1.88e-7,0,2.2222,312,190)">
          <g
             id="g55"
             transform="scale(0.21459,0.45254)">
            <g
               id="g57"
               clip-path="url(#clipPath61)">
              <g
                 id="g63">
                <g
                   id="g65">
                  <g
                     id="g67" />
                </g>
                <g
                   id="g69">
                  <g
                     id="g71"
                     clip-path="url(#clipPath75)">
                    <path
                       d="m 115.29,159.4 v 0 c 0,-0.37 0,-0.82 0,-1.27 0,-19.06 0,-38.19 0.08,-57.25 0,-2.546 0.37,-4.947 1.72,-7.198 2.4,-3.826 5.93,-5.176 10.2,-5.026 4.35,0.225 7.35,2.4 9.23,6.077 1.27,2.475 1.42,5.327 1.42,8.097 0.08,18.61 0.15,37.22 0.23,55.82 0,0.75 0.22,0.98 1.05,0.98 6.45,0 12.9,0 19.28,0 0.97,0 1.27,-0.3 1.27,-1.2 -0.07,-18.68 0,-37.37 -0.07,-56.12 0,-2.18 -0.45,-4.427 -0.68,-6.602 -0.37,-3.151 -1.2,-6.077 -2.32,-9.003 -1.05,-2.851 -2.7,-5.401 -4.65,-7.727 -0.98,-1.2 -1.95,-2.326 -3.01,-3.451 -3.75,-3.601 -8.1,-6.002 -13.05,-7.427 -3.97,-1.125 -8.1,-1.2 -12.22,-1.05 -4.2,0.225 -8.1,1.35 -11.7,3.226 -8.18,4.276 -13.957,10.653 -16.732,19.58 -0.975,3.151 -1.425,6.452 -1.575,9.753 -0.15,4.201 -0.225,8.401 -0.3,12.681 0,15.23 0,30.53 0,45.84 0,1.5 0,1.5 1.575,1.5 5.322,0 10.652,0 16.052,0 1.35,0 2.7,-0.15 4.2,-0.23 z"
                       style="fill:#fefefe;fill-opacity:1;fill-rule:nonzero;stroke:none"
                       id="path77" />
                  </g>
                </g>
                <g
                   id="g79">
                  <g
                     id="g81"
                     clip-path="url(#clipPath85)">
                    <path
                       d="m 313.54,68.4 v 0 c -0.52,0 -0.97,0 -1.35,0 -6.07,0 -12.22,0 -18.3,0 -1.2,0 -2.4,0 -3.6,0.15 -0.3,0.075 -0.75,0.45 -0.9,0.75 -2.78,5.627 -5.55,11.178 -8.25,16.805 -0.53,1.2 -1.2,1.576 -2.48,1.5 -7.72,0 -15.45,0 -23.25,0 -0.75,0 -1.28,-0.225 -1.58,-0.975 -1.42,-3.151 -2.92,-6.377 -4.35,-9.527 -1.2,-2.626 -2.4,-5.177 -3.52,-7.728 -0.38,-0.75 -0.83,-0.975 -1.65,-0.975 -7.13,0 -14.33,0 -21.53,0 -1.2,0 -1.35,0.15 -0.83,1.2 2.33,4.652 4.66,9.153 6.91,13.804 2.77,5.627 5.47,11.253 8.25,16.876 3.6,7.28 7.2,14.56 10.8,21.76 3.52,7.2 7.05,14.33 10.57,21.53 2.48,5.03 4.96,10.05 7.51,15.16 0.15,0.3 0.52,0.45 0.75,0.75 0.3,-0.3 0.67,-0.45 0.82,-0.83 4.5,-8.7 8.93,-17.4 13.35,-26.11 3,-6 6.08,-11.93 9.08,-17.93 2.47,-4.72 4.87,-9.45 7.35,-14.25 3,-5.928 6,-11.854 9.08,-17.706 2.25,-4.426 4.57,-8.777 6.82,-13.204 0.15,-0.3 0.15,-0.6 0.3,-1.05 z"
                       style="fill:#fefefe;fill-opacity:1;fill-rule:nonzero;stroke:none"
                       id="path87" />
                  </g>
                </g>
                <g
                   id="g89">
                  <g
                     id="g91"
                     clip-path="url(#clipPath95)">
                    <path
                       d="m 85.887,68.4 v 0 c -3.526,0 -7.051,0 -10.577,-0.075 -0.9,0 -1.35,0.375 -1.725,1.125 -2.25,4.577 -4.501,9.153 -6.751,13.654 -0.6,1.201 -1.05,2.326 -1.575,3.451 -0.375,0.75 -0.825,1.05 -1.725,1.05 -7.877,0 -15.753,0 -23.629,0 -1.05,0.076 -1.575,-0.525 -1.95,-1.35 -2.55,-5.551 -5.101,-11.103 -7.651,-16.73 -0.375,-0.825 -0.825,-1.2 -1.725,-1.2 C 21.678,68.4 14.777,68.4 7.8761,68.4 c -0.2251,0 -0.4501,0 -0.6751,0 -0.9752,0.075 -1.2002,0.45 -0.7501,1.35 1.3501,2.926 2.7753,5.777 4.2751,8.703 3.901,8.027 7.876,16.054 11.777,24.077 2.55,5.03 5.026,10.06 7.501,15.16 3.525,7.13 7.051,14.25 10.576,21.38 3.226,6.53 6.376,13.05 9.602,19.58 0.15,0.3 0.6,0.68 0.825,0.68 0.3,-0.08 0.675,-0.38 0.9,-0.68 2.475,-4.8 4.951,-9.68 7.426,-14.48 2.325,-4.57 4.576,-9.23 6.901,-13.8 5.026,-9.68 10.051,-19.36 15.002,-29.11 3.525,-6.828 7.051,-13.73 10.576,-20.631 1.801,-3.601 3.676,-7.203 5.551,-10.804 0.675,-1.275 0.525,-1.425 -0.9,-1.425 -3.526,0 -7.051,0 -10.576,0 z"
                       style="fill:#fefefe;fill-opacity:1;fill-rule:nonzero;stroke:none"
                       id="path97" />
                  </g>
                </g>
                <g
                   id="g99">
                  <g
                     id="g101"
                     clip-path="url(#clipPath105)">
                    <path
                       d="m 167.8,68.625 v 0 c 0,0.825 0,1.576 0,2.326 0,29.179 0,58.289 0,87.399 0,1.28 0,1.28 1.35,1.28 6.22,0 12.52,0 18.75,0 1.43,0 1.5,0 1.5,-1.35 0,-22.21 0,-44.34 0,-66.548 v -1.501 c 0.53,0 0.98,-0.075 1.35,-0.075 8.48,0 16.95,0 25.43,0 1.65,0 1.65,0 1.65,-1.65 0,-6.077 0,-12.154 0,-18.23 0,-1.876 0,-1.876 -1.88,-1.876 -9.97,0 -20.02,0 -30.08,0 -5.7,0 -11.32,0.075 -17.02,0.15 -0.3,0 -0.6,0 -1.05,0.075 z"
                       style="fill:#fefefe;fill-opacity:1;fill-rule:nonzero;stroke:none"
                       id="path107" />
                  </g>
                </g>
                <g
                   id="g109">
                  <g
                     id="g111"
                     clip-path="url(#clipPath115)">
                    <path
                       d="m 89.112,33.665 v 0 c 0.45,0 0.825,0 1.2,0 4.876,0 9.748,-0.075 14.548,0 2.7,0.075 5.4,0.225 8.03,0.675 2.85,0.526 5.25,1.951 6,4.877 0.53,1.8 0.68,3.751 0.6,5.551 -0.15,3.076 -1.5,5.627 -4.42,6.977 -2.1,0.976 -4.36,1.351 -6.68,1.351 -6.08,0.075 -12.227,0 -18.378,0 -0.3,0 -0.6,0 -0.9,0 z m 27.008,-5.851 v 0 c 1.2,-0.901 2.4,-1.801 3.52,-2.851 2.1,-1.801 3.38,-4.276 4.35,-6.752 1.95,-5.327 3.9,-10.5781 5.78,-15.9046 0.15,-0.3001 0.15,-0.6752 0.22,-1.2004 -2.85,0 -5.55,0 -8.32,0.0751 -0.23,0 -0.45,0.3751 -0.6,0.6752 -1.65,4.7263 -3.38,9.5277 -4.95,14.3287 -1.5,4.352 -4.21,7.652 -8.63,9.228 -1.2,0.45 -2.48,0.675 -3.75,0.675 -4.652,0.075 -9.302,0.075 -13.953,0.075 -0.225,0 -0.375,-0.075 -0.75,-0.075 0,-0.45 0,-0.825 0,-1.2 0,-7.502 0,-15.0045 0,-22.5066 0,-0.9753 -0.225,-1.3504 -1.2,-1.2754 -1.875,0.0751 -3.826,0 -5.701,0 -1.275,0 -1.35,0.1501 -1.35,1.3504 0,17.7796 0,35.5596 0,53.2646 0,1.126 0,2.251 0,3.376 -0.075,0.751 0.3,1.051 1.05,1.051 9.076,0 18.224,0.075 27.304,0 2.93,0 5.93,-0.225 8.78,-1.201 3.3,-1.2 5.92,-3.226 7.65,-6.226 3,-5.177 3.52,-10.653 1.12,-16.13 -1.72,-3.976 -4.95,-6.452 -8.92,-7.952 -0.53,-0.225 -0.98,-0.375 -1.5,-0.6 -0.08,0 -0.08,-0.075 -0.15,-0.225 z"
                       style="fill:#fefefe;fill-opacity:1;fill-rule:nonzero;stroke:none"
                       id="path117" />
                  </g>
                </g>
                <g
                   id="g119">
                  <g
                     id="g121"
                     clip-path="url(#clipPath125)">
                    <path
                       d="m 217.68,8.8332 v 0 c 0.52,0.1501 1.2,0.1501 1.65,0.4502 2.7,1.3506 4.12,3.6756 4.88,6.3766 0.67,2.326 1.2,4.802 1.2,7.202 0.15,11.703 0.07,23.482 0.07,35.26 0,0.225 0.08,0.525 0,0.825 0,0.976 0.38,1.276 1.35,1.276 2.03,-0.075 4.05,-0.075 6.08,0 0.97,0 1.27,-0.375 1.27,-1.276 -0.07,-0.6 0,-1.2 0,-1.725 -0.07,-11.403 0.08,-22.732 -0.07,-34.06 -0.08,-4.501 -0.68,-9.077 -2.85,-13.2035 -1.8,-3.4509 -4.35,-6.0017 -7.88,-7.7271 -3,-1.42543 -6.15,-2.0256 -9.45,-2.10063 -2.55,-0.075014 -5.18,-0.225054 -7.73,0 -5.55,0.60017 -10.65,2.32563 -14.32,6.90193 -2.03,2.5507 -3.15,5.4763 -3.75,8.6273 -0.45,2.626 -0.83,5.402 -0.83,8.102 -0.07,11.629 0,23.332 0,35.035 0,1.426 0,1.426 1.35,1.426 2.03,0 3.98,-0.075 6,0 0.98,0 1.28,-0.3 1.28,-1.276 -0.08,-11.028 -0.08,-22.056 0,-33.084 0,-2.251 0.07,-4.501 0.45,-6.677 0.45,-3.376 1.5,-6.452 4.27,-8.852 1.43,-1.2757 3.08,-1.8759 4.8,-2.251 3.68,-0.6752 7.28,-0.5251 10.95,0.1501 0.38,0.15 0.75,0.4501 1.2,0.6751 0,0 0.08,-0.075 0.08,-0.075 z"
                       style="fill:#fefefe;fill-opacity:1;fill-rule:nonzero;stroke:none"
                       id="path127" />
                  </g>
                </g>
                <g
                   id="g129">
                  <g
                     id="g131"
                     clip-path="url(#clipPath135)">
                    <path
                       d="m 275.51,25.638 v 0 c -3.22,8.552 -6.45,16.955 -9.67,25.357 -0.15,0 -0.3,0 -0.45,0 -3.08,-8.402 -6.08,-16.805 -9.23,-25.357 z M 240.63,7.2578 v 0 c 0.23,0.3751 0.38,0.8252 0.6,1.2003 0.38,0.9003 0.83,1.8009 1.2,2.7759 1.8,4.726 3.6,9.453 5.4,14.179 2.03,5.176 4.05,10.278 6,15.454 1.58,4.201 3.15,8.328 4.73,12.454 0.75,1.95 1.42,3.826 2.17,5.776 0.3,0.601 0.6,1.051 1.51,0.976 2.32,-0.075 4.57,0.075 6.9,0.15 0.75,0 1.12,-0.375 1.42,-1.051 2.1,-5.176 4.13,-10.352 6.3,-15.529 2.78,-6.752 5.63,-13.504 8.4,-20.331 1.58,-3.826 3,-7.652 4.58,-11.553 1.2,-3.0008 2.47,-5.9266 3.67,-8.9275 0.68,-1.5004 0.45,-1.87549 -1.2,-1.87549 -2.02,0 -4.12,0.07499 -6.15,0 -0.9,0 -1.5,0.30009 -1.8,1.20029 -0.9,2.3257 -1.8,4.6513 -2.7,6.977 -1.12,2.8507 -2.17,5.7767 -3.3,8.6277 -0.22,0.375 -0.9,0.825 -1.35,0.825 -7.35,0.075 -14.7,0.075 -22.13,0.075 -0.82,0 -1.2,-0.45 -1.5,-1.275 -1.8,-5.027 -3.67,-10.0532 -5.47,-15.0796 -0.3,-0.9003 -0.83,-1.35039 -1.8,-1.35039 -2.03,0.07499 -3.98,0 -6,0 -1.2,0.07499 -1.43,0.37509 -0.98,1.42539 0.23,0.9003 0.68,1.6505 0.9,2.4757 0.3,0.8252 0.38,1.5754 0.53,2.4007 0.07,0 0.07,0 0.07,0 z"
                       style="fill:#fefefe;fill-opacity:1;fill-rule:nonzero;stroke:none"
                       id="path137" />
                  </g>
                </g>
                <g
                   id="g139">
                  <g
                     id="g141"
                     clip-path="url(#clipPath145)">
                    <path
                       d="m 30.904,1.1811 v 0 h -8.251 c -0.975,2.4757 -1.95,5.0264 -3,7.5771 C 16.577,16.785 13.427,24.738 10.351,32.765 8.1011,38.617 5.8508,44.393 3.6005,50.245 2.5503,52.946 1.4252,55.646 0.37505,58.347 0.22503,58.722 0.15002,59.022 0,59.323 c -0.07501,0.6 0.07501,0.825 0.67509,0.825 2.32531,0 4.72561,0.075 7.05091,0 0.3751,0 0.9752,-0.45 1.1252,-0.825 2.6258,-7.203 5.1758,-14.33 7.8008,-21.532 3.226,-8.702 6.451,-17.48 9.677,-26.257 0.075,-0.15 0.225,-0.375 0.525,-0.825 0.45,1.125 0.825,2.025 1.2,2.851 2.7,7.427 5.475,14.854 8.176,22.281 2.925,7.802 5.776,15.604 8.626,23.482 0.3,0.675 0.525,0.9 1.275,0.9 2.1,-0.075 4.276,-0.075 6.451,-0.075 1.125,0 1.275,-0.225 0.9,-1.351 C 50.707,51.82 47.931,44.768 45.231,37.791 42.681,31.265 40.205,24.663 37.655,18.136 35.405,12.509 33.154,6.8827 30.904,1.1811 Z"
                       style="fill:#fefefe;fill-opacity:1;fill-rule:nonzero;stroke:none"
                       id="path147" />
                  </g>
                </g>
                <g
                   id="g149">
                  <g
                     id="g151"
                     clip-path="url(#clipPath155)">
                    <path
                       d="m 153.25,52.721 v 0 c -0.6,0 -1.05,0 -1.43,0 -5.55,0 -11.1,0 -16.65,0 -0.98,0 -1.2,0.3 -1.2,1.125 0.07,1.8 0.07,3.601 0,5.401 0,0.676 0.3,0.901 0.9,0.901 0.22,0 0.45,0 0.75,0 14.63,0 29.25,0 43.88,0 1.35,0 1.42,-0.075 1.42,-1.426 0,-1.65 -0.07,-3.226 0,-4.876 0.08,-0.975 -0.3,-1.125 -1.2,-1.125 -5.55,0 -11.1,0 -16.65,0 -0.52,0 -0.97,0 -1.57,0 -0.08,-0.45 -0.08,-0.826 -0.08,-1.201 0,-16.354 0,-32.634 0,-48.9135 0,-1.5005 0,-1.5005 -1.5,-1.5005 -1.72,0 -3.52,0.0751 -5.32,0 -1.05,-0.075 -1.35,0.3001 -1.35,1.3504 0.07,14.9296 0,29.9336 0,44.8626 0,1.801 0,3.526 0,5.402 z"
                       style="fill:#fefefe;fill-opacity:1;fill-rule:nonzero;stroke:none"
                       id="path157" />
                  </g>
                </g>
                <g
                   id="g159">
                  <g
                     id="g161"
                     clip-path="url(#clipPath165)">
                    <path
                       d="m 307.09,8.7582 v 0 c 0.83,0 1.5,0 2.1,0 8.1,0 16.2,0 24.3,0 0.23,0 0.45,0 0.68,0 1.35,-0.075 1.5,-0.3001 1.5,-1.6505 0,-1.5754 0,-3.0758 0,-4.6513 0,-1.2753 -0.15,-1.4254 -1.5,-1.50039 -3.08,0 -6.15,0 -9.23,0 -8.02,0 -15.97,0 -23.92,0 -0.3,0 -0.53,0 -0.75,0 -1.58,0.07499 -1.65,0.14999 -1.65,1.65049 0,18.6805 0.07,37.3605 0.07,56.0405 0,1.576 0,1.576 1.58,1.576 1.87,0 3.75,-0.075 5.62,0 0.83,0 1.13,-0.375 1.2,-1.126 0,-0.225 0,-0.45 0,-0.675 0,-16.204 0,-32.334 0,-48.5385 0,-0.3001 0,-0.6752 0,-1.1253 z"
                       style="fill:#fefefe;fill-opacity:1;fill-rule:nonzero;stroke:none"
                       id="path167" />
                  </g>
                </g>
                <g
                   id="g169">
                  <g
                     id="g171"
                     clip-path="url(#clipPath175)">
                    <path
                       d="m 60.383,30.739 v 0 c 0,9.453 0,18.906 -0.075,28.358 0,0.751 0.15,1.126 0.975,1.126 2.1,-0.075 4.276,-0.075 6.376,-0.075 0.6,0.075 0.825,-0.225 0.825,-0.825 0,-0.601 0,-1.201 0,-1.876 0,-18.23 0,-36.535 0,-54.8405 0,-1.5005 0,-1.5005 -1.425,-1.5005 -1.725,0 -3.45,0 -5.176,0 -1.5,0 -1.5,0 -1.5,1.5005 0,9.3775 0,18.7555 0,28.1325 z"
                       style="fill:#fefefe;fill-opacity:1;fill-rule:nonzero;stroke:none"
                       id="path177" />
                  </g>
                </g>
              </g>
            </g>
          </g>
        </g>
      </g>
    </g>
  </g>
</svg>
