<?xml version="1.0" encoding="UTF-8" standalone="no"?>
<!-- Created with Inkscape (http://www.inkscape.org/) -->

<svg
   width="9.0127497mm"
   height="8.1492472mm"
   viewBox="0 0 9.0127497 8.1492472"
   version="1.1"
   id="svg859"
   xmlns:inkscape="http://www.inkscape.org/namespaces/inkscape"
   xmlns:sodipodi="http://sodipodi.sourceforge.net/DTD/sodipodi-0.dtd"
   xmlns="http://www.w3.org/2000/svg"
   xmlns:svg="http://www.w3.org/2000/svg">
  <sodipodi:namedview
     id="namedview861"
     pagecolor="#505050"
     bordercolor="#eeeeee"
     borderopacity="1"
     inkscape:showpageshadow="0"
     inkscape:pageopacity="0"
     inkscape:pagecheckerboard="0"
     inkscape:deskcolor="#505050"
     inkscape:document-units="mm"
     showgrid="false" />
  <defs
     id="defs856" />
  <g
     inkscape:label="Layer 1"
     inkscape:groupmode="layer"
     id="layer1"
     transform="translate(-62.137492,-62.133627)">
    <g
       id="g1301"
       transform="translate(74.39326,86.933357)">
      <path
         d="m -3.4194076,-21.450461 c -0.053269,0.130528 -0.1012472,0.264231 -0.1622778,0.390525 -0.027869,0.0575 -0.081139,0.09984 -0.1375833,0.166511 v -1.351492 c 0.049389,0.05433 0.1026583,0.09278 0.1291167,0.147109 0.063853,0.131586 0.1146527,0.270228 0.1707444,0.4064 z"
         style="fill:none;stroke:#000000;stroke-width:0.352778;stroke-linecap:butt;stroke-linejoin:miter;stroke-miterlimit:10;stroke-dasharray:none;stroke-opacity:1"
         id="path446-3" />
      <path
         d="m -8.9834549,-20.387259 v -2.373489 c 0.036689,0 0.072319,3.53e-4 0.10795,0 0.3157361,-0.0014 0.6342944,0.02399 0.942975,-0.0635 0.2169583,-0.06138 0.434975,-0.132997 0.6378222,-0.23495 0.9927166,-0.49918 1.9804944,-1.010355 2.9703888,-1.516944 0.027869,-0.01446 0.055386,-0.03104 0.085019,-0.04057 0.099836,-0.0314 0.1869722,0.03563 0.1979083,0.150636 0.00282,0.02752 0.00247,0.05574 0.00247,0.08326 0,1.872192 0,3.744736 0,5.616928 0,0.02152 7.056e-4,0.04304 -7.055e-4,0.06491 -0.00741,0.150283 -0.1093611,0.21978 -0.2353028,0.15628 -0.2913944,-0.147108 -0.5817305,-0.297039 -0.8724194,-0.445911 -0.7090833,-0.363008 -1.4188722,-0.724253 -2.1265444,-1.090083 -0.4021667,-0.208139 -0.8233833,-0.310092 -1.2671778,-0.306564 -0.14605,0.0011 -0.2917472,0 -0.4423833,0 z"
         style="fill:none;stroke:#000000;stroke-width:0.352778;stroke-linecap:butt;stroke-linejoin:miter;stroke-miterlimit:10;stroke-dasharray:none;stroke-opacity:1"
         id="path450-5" />
      <path
         d="m -9.3030001,-22.581079 v 2.017889 c -0.028222,0.0021 -0.055033,0.0056 -0.082197,0.0056 -0.6286499,3.53e-4 -1.2569479,3.53e-4 -1.8855979,0 -0.331258,0 -0.58173,-0.152752 -0.731308,-0.48013 -0.03775,-0.08361 -0.06668,-0.181328 -0.06914,-0.273403 -0.0053,-0.211667 -0.02117,-0.431094 0.01975,-0.634647 0.08043,-0.40005 0.369711,-0.636764 0.75812,-0.64135 0.64523,-0.0081 1.290814,-0.0025 1.9363971,-0.0021 0.016581,0 0.032808,0.0049 0.053975,0.0081 z"
         style="fill:none;stroke:#000000;stroke-width:0.352778;stroke-linecap:butt;stroke-linejoin:miter;stroke-miterlimit:10;stroke-dasharray:none;stroke-opacity:1"
         id="path454-6" />
      <path
         d="m -9.7980884,-20.216127 c -0.03175,0.218369 -0.064911,0.421569 -0.089958,0.625828 -0.074083,0.599016 -0.033514,1.189919 0.1326444,1.766005 0.069497,0.240242 0.1629833,0.47237 0.2511778,0.705909 0.06985,0.185208 0.0127,0.290336 -0.1679222,0.290688 -0.2903361,0.0011 -0.5806726,0.0011 -0.8710086,0 -0.135819,-3.52e-4 -0.180269,-0.04374 -0.204611,-0.189088 -0.07091,-0.418748 -0.140758,-0.836789 -0.156633,-1.264356 -0.02046,-0.540455 0.03669,-1.072092 0.131938,-1.600553 0.01658,-0.09066 0.02681,-0.182739 0.04692,-0.272697 0.0056,-0.02399 0.03669,-0.05891 0.05609,-0.05891 0.286808,-0.0039 0.573969,-0.0028 0.8713609,-0.0028 z"
         style="fill:none;stroke:#000000;stroke-width:0.352778;stroke-linecap:butt;stroke-linejoin:miter;stroke-miterlimit:10;stroke-dasharray:none;stroke-opacity:1"
         id="path458-2" />
    </g>
  </g>
</svg>
